<svg xmlns="http://www.w3.org/2000/svg" width="19.071" height="19.028" viewBox="0 0 19.071 19.028"><defs><style>.a{fill:#fff;}</style></defs><g transform="translate(0 0)"><g transform="translate(0 0)"><path class="a" d="M.427,15.444,3.372,12.5a1.536,1.536,0,0,1,2.165.041l1.484,1.484.293-.163a14.766,14.766,0,0,0,3.569-2.581A14.849,14.849,0,0,0,13.47,7.7c.055-.1.108-.2.16-.286l-1-.994-.49-.49a1.534,1.534,0,0,1-.04-2.165L15.05.821a1.534,1.534,0,0,1,2.165.041l.83.835-.023.023a4.8,4.8,0,0,1,.684,1.207,5,5,0,0,1,.3,1.224c.389,3.224-1.084,6.171-5.083,10.169C8.4,19.845,3.947,19.428,3.755,19.407A4.977,4.977,0,0,1,2.528,19.1a4.784,4.784,0,0,1-1.2-.681l-.018.016-.841-.823A1.537,1.537,0,0,1,.427,15.444Z" transform="translate(0 -0.394)"/></g></g></svg>