<svg xmlns="http://www.w3.org/2000/svg" width="25" height="19" viewBox="0 0 25 19"><defs><style>.a{fill:#fff;}</style></defs><path class="a" d="M22.656,59.882H2.344A2.362,2.362,0,0,0,0,62.257v14.25a2.362,2.362,0,0,0,2.344,2.375H22.656A2.362,2.362,0,0,0,25,76.507V62.257A2.362,2.362,0,0,0,22.656,59.882Zm0,1.583a.768.768,0,0,1,.3.061L12.5,70.709,2.044,61.527a.769.769,0,0,1,.3-.061Zm0,15.833H2.344a.787.787,0,0,1-.781-.792V63.2l10.426,9.156a.775.775,0,0,0,1.024,0L23.437,63.2V76.507A.787.787,0,0,1,22.656,77.3Z" transform="translate(0 -59.882)"/></svg>