<svg xmlns="http://www.w3.org/2000/svg" width="19.028" height="18.394" viewBox="0 0 19.028 18.394"><defs><style>.a{fill:#fff;}</style></defs><rect class="a" width="4.26" height="12.792" transform="translate(0 5.602)"/><path class="a" d="M163.228,140.8a4.585,4.585,0,0,0-3.55-1.465,5.117,5.117,0,0,0-1.478.2,3.354,3.354,0,0,0-1.123.561,4.811,4.811,0,0,0-1.233,1.354v-1.819H151.6l.013.62q.013.62.013,3.821t-.026,8.352h4.247v-7.139a3.118,3.118,0,0,1,.142-1.046,2.742,2.742,0,0,1,.82-1.1,2.09,2.09,0,0,1,1.362-.446,1.837,1.837,0,0,1,1.633.768,3.735,3.735,0,0,1,.523,2.123v6.841h4.247v-7.332A6.146,6.146,0,0,0,163.228,140.8Z" transform="translate(-145.542 -134.026)"/><path class="a" d="M2.4,9.708a2.43,2.43,0,0,0-1.736.626A2.079,2.079,0,0,0,0,11.915,2.115,2.115,0,0,0,.645,13.49a2.33,2.33,0,0,0,1.7.633h.026a2.432,2.432,0,0,0,1.749-.633,2.044,2.044,0,0,0,.652-1.575,2.153,2.153,0,0,0-.658-1.581A2.36,2.36,0,0,0,2.4,9.708Z" transform="translate(0 -9.708)"/></svg>