<svg xmlns="http://www.w3.org/2000/svg" width="487.698" height="487.698" viewBox="0 0 487.698 487.698"><defs><style>.a{opacity:0.1;}.b{fill:#fff;}</style></defs><g class="a" transform="translate(160.757 -420.483) rotate(-45)"><path class="b" d="M-625.071,432.376c.154-2.686,1.116-3.5,3.573-4,36.239-7.354,71.694-17.271,105.373-32.832,16.916-7.817,33.061-16.931,47.557-28.936,39.883,30.775,86.109,45.846,133.784,57.521,6.572,1.609,13.219,2.923,19.844,4.313,1.861.391,3.079.876,3.164,3.275,1.714,48.553-4.315,95.853-23.143,140.99-19.137,45.883-49.516,82.047-93.8,105.475-11.91,6.3-24.79,10.786-37.309,15.9a8.467,8.467,0,0,1-5.351-.189c-63.375-20.836-107.463-62.346-132.549-124.078-10.76-26.478-16.885-54.089-19.739-82.479a348.113,348.113,0,0,1-1.4-54.954m8.137,132.119c25.642,70.467,73.589,117.989,145.467,140.682a9.6,9.6,0,0,0,5.351.272c24.515-7.548,47.438-18.394,68.2-33.574,40.166-29.37,65.712-69.013,81.027-115.77a331.179,331.179,0,0,0,14.919-76.125,380.54,380.54,0,0,0,.462-55.694c-.185-2.879-.98-4.355-4.324-4.991-31.468-5.983-62.416-13.934-92.253-25.768-21.685-8.6-42.578-18.714-60.877-33.458-3.19-2.57-5.825-5.831-8.717-8.771h-.7c-1.89,1.9-3.671,3.928-5.687,5.687-16.12,14.075-34.819,23.863-54.291,32.291C-560.883,403.351-594.934,412.3-629.6,419.14c-5.38,1.064-5.346,1.1-5.685,6.665a378.392,378.392,0,0,0,.536,53.944c2.37,29.012,7.852,57.372,17.814,84.746" transform="translate(57.353)"/><path class="b" d="M-595.79,518.606c19.008,51.206,52.8,88.314,104.087,108.661a9.607,9.607,0,0,0,7.683-.107c44.394-17.565,76.494-48.183,96.718-91.274,16.256-34.634,22.817-71.431,23.777-109.43.073-2.894-1.679-3.063-3.59-3.611-15.584-4.477-31.2-8.846-46.721-13.55-7.083-2.147-13.961-4.969-21.516-7.7.872,1.559,1.4,2.563,1.985,3.537,8.81,14.744,17.461,29.588,26.5,44.189,5.965,9.637,7.7,20.071,6.429,30.962-2.857,24.526-13.454,45.727-29.08,64.549a36.461,36.461,0,0,1-14.835,10.885c-9.759,3.819-19.112.818-24.608-8.064-5.954-9.622-8.094-20.377-8.259-31.48-.331-22.242,7.458-41.6,21.779-58.415,1.489-1.748,1.823-2.941.654-5.136-10.6-19.893-21.028-39.876-31.517-59.827-.449-.853-1.009-1.647-1.621-2.635-.467.665-.7.933-.865,1.238-10.878,20.668-21.782,41.322-32.533,62.056a4.353,4.353,0,0,0,.689,3.826c13.054,15.495,20.971,33.127,21.953,53.484.645,13.4-1.421,26.357-8.846,37.938-4.551,7.1-11.274,9.462-19.379,8.268-6.652-.98-12.092-4.506-16.557-9.23-16.827-17.808-27.133-39.025-31.418-63.044a51.891,51.891,0,0,1,7.91-38.812c9.228-14.184,17.511-28.983,26.308-43.687-.5-.207-.625-.313-.7-.284a578.062,578.062,0,0,1-68.788,21.524,3.654,3.654,0,0,0-1.971,2.83c.069,5.722.339,11.447.719,17.158a265.424,265.424,0,0,0,15.611,75.182" transform="translate(76.873 31.772)"/></g></svg>