<svg xmlns="http://www.w3.org/2000/svg" width="1920" height="1080.422" viewBox="0 0 1920 1080.422"><defs><style>.a{opacity:0.05;}.b{fill:#fff;}</style></defs><g class="a"><path class="b" d="M1541.972,1056.032a.544.544,0,0,0,.1-.133s.008-.009.011-.014L1600,1017.275l57.913,38.609a.165.165,0,0,0,.011.014.547.547,0,0,0,.1.133l7.316,24.391h1.637l-6.933-23.113,34.67,23.113h2.375l-36.786-24.525,171.515-39.853-19.171,63.923-1.959.455h3.829l-.307-.205,19.37-64.582L1918.9,995.81l-25.377,84.613h1.638L1920,997.606v-3.3h-.01a1,1,0,0,0-.1,0l-74.7-17.358,16.786-55.964a.579.579,0,0,0,.1-.134.1.1,0,0,1,.01-.013L1920,882.222v-1.583l-38.276-25.519L1920,727.5v-3.3a.834.834,0,0,0-.115,0l-74.7-17.357,16.786-55.964a.565.565,0,0,0,.1-.133c0-.005.009-.01.012-.015L1920,612.116v-1.583l-38.276-25.518L1920,457.394v-3.3a1.113,1.113,0,0,0-.117,0l-74.7-17.357,16.786-55.964a.587.587,0,0,0,.1-.133c0-.005.008-.009.01-.015L1920,342.011v-1.583l-38.276-25.518L1920,187.289v-3.3a.975.975,0,0,0-.116,0l-74.7-17.357,16.786-55.964a.578.578,0,0,0,.1-.134s.008-.009.01-.014L1920,71.9V70.322L1881.724,44.8,1895.162,0h-1.638l-13.165,43.894L1814.521,0h-3.827l-84.241,19.575L1697.092,0h-2.374l29.974,19.984-48.348,11.235L1666.981,0h-1.637l9.47,31.574-74.7,17.357c-.037,0-.076,0-.114,0a1.18,1.18,0,0,0-.12,0l-74.7-17.357L1534.656,0h-1.637l-9.363,31.218-48.348-11.235L1505.282,0h-2.375l-29.361,19.575L1389.307,0h-3.827l-65.839,43.894L1306.476,0h-1.638l13.438,44.8L1280,70.322,1241.724,44.8,1255.162,0h-1.638l-13.165,43.894L1174.521,0h-3.827l-84.241,19.575L1057.092,0h-2.375l29.974,19.984-48.348,11.235L1026.981,0h-1.637l9.47,31.574-74.7,17.357c-.036,0-.075,0-.113,0a1.193,1.193,0,0,0-.121,0l-74.7-17.357L894.656,0h-1.637l-9.363,31.218L835.308,19.984,865.282,0h-2.374L833.547,19.575,749.306,0h-3.827L679.641,43.894,666.476,0h-1.638l13.438,44.8L640,70.322,601.725,44.8,615.162,0h-1.638L600.359,43.894,534.52,0h-3.826L446.453,19.575,417.092,0h-2.374l29.974,19.984L396.344,31.218,386.981,0h-1.638l9.47,31.574-74.7,17.357c-.038,0-.077,0-.115,0s-.078,0-.115,0l-74.7-17.357L254.658,0h-1.638l-9.363,31.218L195.307,19.984,225.282,0h-2.374L193.547,19.575,109.306,0H105.48L39.641,43.894,26.476,0H24.838L38.275,44.8,0,70.322V71.9l57.913,38.611.011.013a.545.545,0,0,0,.1.133l16.786,55.966L.112,183.984c-.036,0-.074,0-.112,0v3.306L38.275,314.91,0,340.428v1.583l57.913,38.61c0,.005.008.009.011.013a.558.558,0,0,0,.1.133l16.786,55.965L.116,454.089a1.1,1.1,0,0,0-.116,0V457.4L38.275,585.015,0,610.533v1.583l57.913,38.61.011.013a.543.543,0,0,0,.1.133l16.785,55.965L.111,724.2c-.036,0-.074,0-.111,0V727.5L38.275,855.121,0,880.639v1.583l57.914,38.611s.007.008.01.013a.557.557,0,0,0,.1.133l16.786,55.966L.111,994.3c-.036,0-.074,0-.111,0v3.306l24.838,82.814h1.638L1.1,995.81l85.318,19.825,19.37,64.583-.307.205h3.83l-1.959-.455-19.172-63.923L259.693,1055.9l-36.786,24.525h2.375l34.67-23.113-6.933,23.113h1.638l7.315-24.391a.585.585,0,0,0,.1-.134s.008-.008.01-.013L320,1017.275l57.914,38.61c0,.005.008.009.01.013a.586.586,0,0,0,.1.134l7.315,24.391h1.638l-6.933-23.113,34.67,23.113h2.375L380.307,1055.9l171.515-39.854-19.172,63.923-1.959.455h3.83l-.307-.205,19.37-64.583L638.9,995.81l-25.378,84.613h1.638L640,997.609l24.838,82.814h1.638L641.1,995.81l85.318,19.825,19.37,64.583-.307.205h3.829l-1.959-.455-19.171-63.923L899.693,1055.9l-36.786,24.525h2.374l34.669-23.113-6.932,23.113h1.638l7.316-24.391a.547.547,0,0,0,.1-.133s.008-.009.011-.014L960,1017.275l57.913,38.609a.1.1,0,0,0,.011.014.546.546,0,0,0,.1.133l7.316,24.391h1.638l-6.933-23.113,34.669,23.113h2.375l-36.786-24.525,171.515-39.853-19.171,63.923-1.959.455h3.829l-.307-.205,19.369-64.582L1278.9,995.81l-25.377,84.613h1.638L1280,997.606l24.839,82.817h1.638L1281.1,995.81l85.318,19.826,19.369,64.582-.307.205h3.829l-1.959-.455-19.171-63.923,171.515,39.853-36.786,24.525h2.375l34.67-23.113-6.933,23.113h1.637Zm.619-2.066,18.737-62.472,37.485,24.99ZM243.656,841.535,195.307,830.3l64.645-43.1Zm1.187,1.5,72.516,16.85-83.38,19.374Zm0-540.211,72.516,16.85-83.38,19.375Zm-1.187-1.5-48.349-11.235,64.645-43.1ZM318.9,320.546,280.359,449.052l-66.146-44.1,19.37-64.582ZM551.822,205.727,532.65,269.651l-86.2,20.029-66.146-44.1Zm-169.935,38.26,132.055-88.04,49.37,11.472-11.094,36.99Zm517.806,1.595-66.146,44.1-86.2-20.029-19.172-63.924ZM727.782,204.408l-11.094-36.99,49.37-11.471,132.055,88.04Zm464.04,1.319-19.171,63.924-86.2,20.029-66.146-44.1Zm-169.934,38.26,132.055-88.04,49.37,11.472-11.094,36.99Zm517.806,1.595-66.146,44.1-86.2-20.029-19.172-63.924Zm-171.91-41.173-11.094-36.99,49.37-11.472,132.055,88.04Zm318.239,134.643-83.381-19.375,72.516-16.85Zm-25.974-92.06,64.644,43.1-48.348,11.235Zm26.369,93.379,19.369,64.582-66.146,44.1L1601.1,320.546ZM1660.048,787.2l64.644,43.1-48.348,11.234Zm25.974,92.06-83.381-19.374,72.516-16.851ZM320,477.063l57.913,38.61c0,.005.008.009.011.014a.544.544,0,0,0,.1.133l16.785,55.964-74.7,17.357c-.037,0-.076,0-.114,0s-.077-.005-.114,0l-74.7-17.357,16.785-55.964a.543.543,0,0,0,.1-.133c0-.005.009-.009.011-.014Zm-57.408,36.691,18.737-62.473,37.484,24.991Zm317.1-133.12-66.146,44.1L427.35,404.7,408.178,340.78ZM407.782,339.461l-11.094-36.99L446.058,291l132.055,88.04Zm-1.761,269.7-83.38-19.375,72.516-16.85ZM380.048,517.1l64.644,43.1-48.348,11.234Zm16.64,55.48L446.057,561.1l132.055,88.04-170.33-39.579Zm-16.381-56.89,171.515-39.854L532.65,539.756l-86.2,20.029Zm1.58-1.594,132.055-88.04,49.37,11.472-11.094,36.99Zm171.7-38.669L638.9,455.6,600.359,584.105l-66.146-44.1Zm.4-1.319,10.864-36.225,72.516,16.85Zm9.677-37.728-48.349-11.234,64.644-43.1Zm-51.474-10.733L379.208,514.3l-19.172-63.924,66.827-44.553ZM377.408,513.754l-56.221-37.482,37.484-24.991Zm29.009,96.723,19.37,64.582-66.146,44.1L321.1,590.652Zm1.761.409,171.515,39.854-66.146,44.1-86.2-20.029Zm105.766,85.272,49.369,11.472-11.094,36.99L381.888,784.2Zm50.9,11.828,72.516,16.85-83.38,19.375Zm-1.187-1.5-48.348-11.234,64.643-43.1ZM447.818,560.7l85.318-19.825,66.828,44.554-19.172,63.923Zm153.51,25.639,37.484,24.99-56.221,37.482Zm.4-1.319L640,457.4l38.276,127.618L640,610.533Zm270.1-244.236L852.65,404.7l-86.2,20.029-66.146-44.1Zm-169.934,38.26L833.942,291l49.37,11.471-11.094,36.99ZM900.791,514.3,767.818,425.643l85.319-19.825,66.826,44.553Zm20.537-63.014,37.485,24.991-56.221,37.482Zm-21.635,64.405-66.146,44.1-86.2-20.029-19.172-63.923ZM727.782,474.514l-11.094-36.99,49.37-11.472,132.055,88.04ZM833.943,561.1l49.369,11.472-11.094,36.989-170.33,39.579Zm50.9,11.827,72.516,16.85-83.381,19.375Zm-1.187-1.5-48.348-11.234,64.643-43.1ZM764.692,425.142l-48.348,11.234-16.3-54.332ZM726.022,474.1,642.641,454.73l72.516-16.85Zm.4,1.319,19.37,64.583-66.146,44.1L641.1,455.6ZM678.671,586.334l18.737,62.473-56.221-37.482Zm1.365-.909,66.828-44.554L832.182,560.7,699.208,649.348ZM726.022,744.21l-83.381-19.375,72.516-16.85Zm-25.974-92.06,64.644,43.1-48.348,11.234Zm16.64,55.479,49.369-11.472L898.112,784.2l-170.33-39.579Zm-16.381-56.89,171.515-39.854L852.65,674.809l-86.2,20.029Zm173.275-40.263L958.9,590.652,920.359,719.158l-66.146-44.1Zm11.6-38.692,16.786-55.964a.575.575,0,0,0,.1-.134.107.107,0,0,1,.011-.014L960,477.063l57.912,38.61a.124.124,0,0,1,.011.014.572.572,0,0,0,.1.134l16.786,55.964-74.7,17.358c-.032,0-.065,0-.1,0a1.114,1.114,0,0,0-.132,0Zm334.506-191.151-66.146,44.1-86.2-20.029-19.172-63.924Zm-171.911-41.173-11.094-36.99L1086.058,291l132.055,88.04Zm-1.76,269.7-83.381-19.375,72.516-16.85Zm-25.974-92.06,64.644,43.1-48.348,11.234Zm16.64,55.479,49.369-11.472,132.055,88.04-170.33-39.579Zm-16.381-56.89,171.514-39.854-19.171,63.923-86.2,20.029Zm1.58-1.595,132.055-88.04,49.37,11.472-11.094,36.99Zm171.7-38.668L1278.9,455.6l-38.542,128.507-66.146-44.1Zm.4-1.319,10.865-36.225,72.516,16.85Zm9.678-37.728-48.348-11.234,64.644-43.1Zm-51.474-10.733L1019.209,514.3l-19.172-63.924,66.826-44.553Zm-134.774,88.111-56.222-37.482,37.485-24.991Zm29.008,96.722,19.37,64.581-66.146,44.1L961.1,590.652Zm1.761.409,171.515,39.854-66.146,44.1-86.2-20.029Zm105.766,85.272,49.369,11.472-11.094,36.99L1021.888,784.2Zm50.9,11.828,72.516,16.85-83.381,19.375Zm-1.187-1.5-48.348-11.234,64.644-43.1ZM1087.818,560.7l85.318-19.825,66.828,44.554-19.173,63.923Zm153.51,25.638,37.485,24.991-56.222,37.482Zm.4-1.319L1280,457.394l38.276,127.621L1280,610.533Zm270.1-244.235L1492.65,404.7l-86.2,20.029-66.146-44.1Zm-169.934,38.26L1473.943,291l49.37,11.471-11.094,36.99Zm316.025,136.634a.119.119,0,0,1,.011.014.573.573,0,0,0,.1.134l16.786,55.964-74.7,17.358c-.031,0-.065,0-.1,0a1.128,1.128,0,0,0-.133,0l-74.7-17.357,16.786-55.964a.57.57,0,0,0,.1-.134.119.119,0,0,1,.011-.014L1600,477.063Zm-56.725-39.4,37.485-24.991,18.737,62.473Zm-61.494,39.415-66.146,44.1-86.2-20.029-19.172-63.923Zm-171.91-41.173-11.094-36.99,49.37-11.472,132.055,88.04Zm155.874,96.916-48.348-11.234,64.644-43.1Zm1.187,1.5,72.516,16.85-83.381,19.375Zm-50.9-11.827,49.369,11.472-11.094,36.989-170.33,39.579Zm37.878,49.781-19.171,63.923-86.2,20.029-66.146-44.1Zm1.762-.409,85.318-19.825-38.542,128.506-66.146-44.1Zm29.008-96.722,18.737-62.473,37.485,24.991Zm-1.8.541-132.974-88.652,85.319-19.825,66.827,44.553Zm-136.1-89.153-48.348,11.234-16.3-54.332Zm-38.67,48.962-83.381-19.374,72.516-16.85Zm.4,1.319,19.369,64.583-66.146,44.1L1281.1,455.6Zm-47.746,110.911,18.737,62.473-56.222-37.482Zm1.364-.909,66.828-44.554,85.319,19.825-132.974,88.652Zm84.656,109.823-48.348,11.234-16.3-54.332Zm-38.67,48.962-83.381-19.375,72.516-16.85Zm-9.334-36.581,49.369-11.472,132.055,88.04-170.329-39.579Zm51.13-11.881,85.318-19.825,66.828,44.553L1540.791,784.4Zm153.51,25.639,37.485,24.99-56.222,37.482Zm.4-1.32L1600,592.446l38.276,127.621L1600,745.586Zm76.948,1.32,18.737,62.472-56.222-37.482Zm1.364-.911,66.828-44.553,85.318,19.825L1659.209,784.4Zm-.4-1.319L1601.1,590.652l85.318,19.825,19.369,64.581Zm-37-129.375,72.516-16.85,10.865,36.225Zm57.407-72.685,64.644,43.1-48.348,11.234Zm-.839-2.8-19.173-63.924,66.827-44.553,85.319,19.825Zm-20.933-64.333L1600,475.48l-38.276-25.518L1600,322.342Zm-77.917-.91-66.146-44.1,19.37-64.582,85.318-19.825Zm-46.381-110,10.865-36.225,72.516,16.85Zm9.677-37.728-48.348-11.235,64.644-43.1Zm-51.474-10.733-132.974,88.652-19.173-63.923,66.828-44.553ZM1337.409,378.7l-56.222-37.483,37.485-24.991Zm.5,1.918c0,.005.008.009.01.015a.587.587,0,0,0,.1.133l16.786,55.964-74.7,17.357a1.125,1.125,0,0,0-.118,0,1.109,1.109,0,0,0-.117,0l-74.7-17.357,16.786-55.964a.584.584,0,0,0,.1-.133c0-.005.008-.009.01-.015L1280,342.011ZM1222.591,378.7l18.737-62.474,37.485,24.991Zm-1.8.54L1087.818,290.59l85.318-19.825,66.828,44.553Zm-136.1-89.153-48.348,11.235-16.3-54.332Zm-38.67,48.963-83.381-19.375,72.516-16.85Zm.4,1.319,19.37,64.582-66.146,44.1L961.1,320.546ZM998.276,449.962,960,475.48l-38.276-25.518L960,322.342Zm-77.917-.91-66.146-44.1,19.369-64.582L958.9,320.546Zm-46.381-110,10.865-36.225,72.516,16.85Zm9.677-37.728-48.348-11.235,64.643-43.1ZM832.182,290.59,699.208,379.243l-19.172-63.924,66.828-44.553ZM697.408,378.7l-56.221-37.482,37.484-24.991Zm.5,1.919c0,.005.008.009.011.013a.542.542,0,0,0,.1.133l16.785,55.965-74.7,17.357a3.895,3.895,0,0,1-.233,0l-74.7-17.357,16.786-55.965a.58.58,0,0,0,.1-.133s.008-.008.011-.013L640,342.011ZM582.592,378.7l18.737-62.473,37.484,24.991Zm-1.8.542L447.818,290.59l85.318-19.825,66.828,44.553Zm-136.1-89.154-48.349,11.235-16.3-54.332Zm-38.672,48.963-83.38-19.375,72.516-16.85Zm.4,1.319,19.37,64.582-66.146,44.1L321.1,320.546ZM358.275,449.963,320,475.48l-38.275-25.518L320,322.344Zm-78.311.409L260.792,514.3,127.818,425.643l85.318-19.825ZM243.656,571.429l-48.348-11.234,64.644-43.1Zm1.187,1.5,72.516,16.85-83.38,19.375ZM318.9,590.652,280.36,719.158l-66.146-44.1,19.37-64.582ZM279.964,720.477,260.792,784.4,127.818,695.749l85.318-19.825Zm1.365.91,37.484,24.99-56.221,37.481Zm.4-1.319L320,592.449l38.275,127.619L320,745.586Zm76.946,1.319,18.737,62.471-56.221-37.481Zm1.365-.91,66.828-44.553,85.318,19.825L379.208,784.4Zm45.985,158.785-83.38-19.374,72.516-16.85ZM380.048,787.2l64.645,43.1-48.349,11.235Zm16.64,55.48,49.37-11.472L578.112,919.25l-170.33-39.578Zm-16.38-56.89,171.514-39.854L532.65,809.863l-86.2,20.029Zm173.274-40.263L638.9,725.7,600.36,854.211l-66.146-44.1Zm11.6-38.691,16.785-55.965a.565.565,0,0,0,.1-.133l.011-.013L640,612.116l57.913,38.61a.146.146,0,0,0,.011.013.585.585,0,0,0,.1.134l16.785,55.964-74.7,17.357c-.036,0-.074,0-.111,0s-.074,0-.111,0Zm161.23,38.691,19.37,64.582-66.146,44.1L641.1,725.7Zm1.761.409,171.514,39.854-66.146,44.1-86.2-20.029Zm105.765,85.273,49.37,11.471-11.094,36.99L701.888,919.25Zm50.9,11.827,72.516,16.851-83.381,19.374Zm-1.187-1.5L835.308,830.3l64.643-43.1ZM767.818,695.749l85.318-19.825,66.828,44.553L900.791,784.4Zm153.51,25.639,37.485,24.99-56.221,37.482Zm.4-1.32L960,592.446l38.276,127.621L960,745.586Zm76.948,1.32,18.737,62.472-56.222-37.482Zm1.364-.911,66.828-44.553,85.318,19.825L1019.209,784.4Zm45.986,158.786-83.381-19.374,72.516-16.851Zm-25.974-92.06,64.644,43.1-48.348,11.235Zm16.64,55.48,49.37-11.472,132.054,88.039-170.33-39.578Zm-16.38-56.89,171.513-39.854-19.171,63.925-86.2,20.029Zm173.274-40.263L1278.9,725.7l-38.542,128.506-66.146-44.1Zm11.6-38.691,16.786-55.964a.562.562,0,0,0,.1-.133c0-.005.009-.01.012-.015L1280,612.116l57.912,38.61s.009.009.012.015a.561.561,0,0,0,.1.133l16.786,55.964-74.7,17.357c-.033,0-.067,0-.1,0a1.008,1.008,0,0,0-.126,0Zm161.231,38.691,19.369,64.582-66.146,44.1L1281.1,725.7Zm1.761.409,171.514,39.854-66.145,44.1-86.2-20.029ZM1539.952,787.2l-16.3,54.332L1475.308,830.3Zm-66.01,44.008,49.37,11.471-11.094,36.99-170.33,39.578Zm50.9,11.827,72.516,16.851-83.381,19.374Zm.343-1.147,16.786-55.963a.562.562,0,0,0,.1-.133c0-.006.01-.01.012-.016L1600,747.169l57.912,38.609c0,.006.009.01.012.016a.566.566,0,0,0,.1.133l16.786,55.963-74.7,17.358a.945.945,0,0,0-.114,0,1.072,1.072,0,0,0-.114,0Zm161.231,38.691,19.369,64.582-66.146,44.1L1601.1,860.757Zm1.76.41,171.515,39.853-66.145,44.1-86.2-20.029Zm-.4-1.32-11.094-36.99,49.37-11.471,132.054,88.039Zm-27.474-93.879,171.514-39.854-19.172,63.925-86.2,20.029Zm1.58-1.595,132.055-88.04,49.369,11.472-11.094,36.99Zm131.659-89.36-86.2-20.029-19.172-63.923,171.514,39.854Zm-105.765-85.272-11.094-36.989,49.369-11.472,132.055,88.04Zm-27.475-93.88,171.515-39.854-19.172,63.923-86.2,20.029Zm1.58-1.595,132.055-88.04,49.37,11.472-11.094,36.99Zm131.66-89.359-86.2-20.029-19.172-63.924,171.514,39.854Zm-105.765-85.272-11.094-36.99L1726.058,291l132.055,88.04Zm-27.475-93.88,171.515-39.854-19.172,63.924-86.2,20.029Zm1.58-1.595,132.055-88.04,49.37,11.472-11.094,36.99Zm131.66-89.359-86.2-20.029-19.172-63.924,171.514,39.854Zm-1.365.91L1659.209,244.19l-19.173-63.924,66.827-44.553Zm-134.774,88.111-56.222-37.482,37.485-24.991Zm.5,1.918c0,.005.008.01.011.015a.585.585,0,0,0,.1.133l16.786,55.964-74.7,17.356a1.134,1.134,0,0,0-.118,0,1.12,1.12,0,0,0-.117,0l-74.7-17.356,16.786-55.964a.581.581,0,0,0,.1-.133.176.176,0,0,0,.011-.015L1600,206.957Zm-115.321-1.918,18.737-62.473,37.485,24.991Zm-1.8.541-132.974-88.652,85.319-19.825,66.827,44.553ZM1492.65,134.6l-86.2,20.029-66.146-44.1,171.514-39.854Zm-87.958,20.438-48.348,11.235-16.3-54.332ZM1366.022,204l-83.381-19.375,72.516-16.85Zm.4,1.319,19.369,64.582L1319.641,314,1281.1,185.493Zm-48.142,109.591L1280,340.428l-38.276-25.518L1280,187.289Zm-77.917-.91-66.146-44.1,19.369-64.582,85.318-19.825Zm-46.381-110,10.865-36.225,72.516,16.85Zm9.678-37.728-48.348-11.235,64.644-43.1Zm-50.109-11.643-86.2-20.029-19.172-63.924,171.515,39.854Zm-1.365.91L1019.209,244.19l-19.172-63.924,66.826-44.553Zm-134.774,88.111-56.222-37.482,37.486-24.991Zm.5,1.918a.152.152,0,0,0,.011.015.583.583,0,0,0,.1.133l16.786,55.964-74.7,17.356a1.134,1.134,0,0,0-.118,0,1.146,1.146,0,0,0-.118,0l-74.7-17.356,16.786-55.964a.587.587,0,0,0,.1-.133.174.174,0,0,0,.011-.015L960,206.957Zm-115.321-1.918,18.737-62.473,37.486,24.991Zm-1.8.541L767.818,155.537l85.319-19.825,66.826,44.553ZM852.65,134.6l-86.2,20.029-66.146-44.1L871.822,70.674Zm-87.958,20.438-48.348,11.235-16.3-54.332ZM726.022,204l-83.381-19.375,72.516-16.85Zm.4,1.319,19.37,64.582L679.641,314,641.1,185.493ZM678.275,314.91,640,340.428,601.725,314.91,640,187.291ZM600.359,314l-66.146-44.1,19.37-64.582L638.9,185.493Zm-46.38-110,10.864-36.225,72.516,16.85Zm9.677-37.728-48.349-11.235,64.644-43.1Zm-50.109-11.643L427.35,134.6,408.178,70.674l171.515,39.854Zm-1.366.91L379.208,244.19l-19.172-63.925,66.827-44.553ZM377.408,243.648l-56.221-37.482,37.484-24.99Zm.5,1.919a.113.113,0,0,0,.011.014.561.561,0,0,0,.1.133l16.786,55.965-74.7,17.357a3.868,3.868,0,0,1-.232,0l-74.7-17.357,16.786-55.965a.56.56,0,0,0,.1-.133.111.111,0,0,0,.011-.014L320,206.957Zm-115.321-1.919,18.737-62.472,37.484,24.99Zm-1.8.542L127.818,155.537l85.318-19.825,66.827,44.553ZM212.65,134.6l-86.2,20.029-66.146-44.1L231.822,70.674Zm45.462,109.388L87.782,204.408l-11.094-36.99,49.37-11.471Zm1.58,1.595-66.146,44.1-86.2-20.029L88.178,205.727ZM193.942,291l49.37,11.471-11.094,36.99L61.887,379.039Zm37.88,49.78L212.65,404.7l-86.2,20.029-66.146-44.1Zm26.29,173.313L87.782,474.514l-11.094-36.99,49.37-11.472Zm1.58,1.594-66.146,44.1-86.2-20.029L88.178,475.833ZM193.943,561.1l49.369,11.472-11.094,36.989L61.888,649.145Zm37.879,49.781L212.65,674.809l-86.2,20.029-66.146-44.1ZM258.112,784.2,87.782,744.619l-11.094-36.99,49.369-11.472Zm1.58,1.595-66.146,44.1-86.2-20.029L88.178,745.938Zm-65.75,45.418,49.37,11.472-11.094,36.99L61.888,919.25Zm37.88,49.781L212.65,944.915l-86.2,20.029-66.146-44.1Zm1.761-.41L318.9,860.757,280.359,989.264l-66.146-44.1Zm11.6-38.691,16.785-55.965a.55.55,0,0,0,.1-.133c0-.005.009-.009.012-.015L320,747.169l57.912,38.609c0,.005.009.009.012.015a.551.551,0,0,0,.1.133l16.785,55.965-74.7,17.358c-.036,0-.074,0-.11,0s-.074,0-.11,0Zm161.23,38.691,19.37,64.583-66.146,44.1L321.1,860.757Zm1.761.41,171.515,39.853-66.146,44.1-86.2-20.029Zm171.774,41.264-16.3,54.332-48.348-11.235ZM447.818,830.8l85.318-19.825,66.828,44.554-19.172,63.923Zm153.51,25.639,37.484,24.991-56.221,37.481Zm.4-1.319L640,727.5,678.275,855.12,640,880.639Zm76.946,1.319,18.737,62.472-56.221-37.481Zm1.365-.909,66.828-44.554L832.182,830.8,699.208,919.454Zm20.271,65.314,171.515-39.853L852.65,944.915l-86.2,20.029Zm64.385,44.508-48.348,11.235-16.3-54.332Zm108.89-84.771L958.9,860.757,920.359,989.264l-66.146-44.1Zm11.6-38.691,16.786-55.963a.566.566,0,0,0,.1-.133c0-.006.01-.01.012-.016L960,747.169l57.912,38.609c0,.006.009.01.012.016a.564.564,0,0,0,.1.133l16.786,55.963-74.7,17.358a.957.957,0,0,0-.115,0,1.071,1.071,0,0,0-.114,0Zm161.23,38.691,19.37,64.582-66.146,44.1L961.1,860.757Zm1.761.41,171.515,39.853-66.146,44.1-86.2-20.029Zm171.774,41.264-16.3,54.332-48.348-11.235ZM1087.818,830.8l85.318-19.825,66.828,44.554-19.172,63.923Zm153.51,25.639,37.485,24.991-56.222,37.481Zm.4-1.32L1280,727.5l38.276,127.62L1280,880.639Zm76.948,1.32,18.737,62.472-56.222-37.481Zm1.364-.909,66.828-44.554,85.318,19.825-132.974,88.652Zm20.271,65.314,171.515-39.853-19.172,63.923-86.2,20.029Zm64.385,44.508-48.348,11.235-16.3-54.332Zm108.891-84.771,85.318-19.825-38.542,128.507-66.146-44.1Zm48.141,109.592L1600,862.552l38.276,127.621L1600,1015.692Zm39.463,26.31,37.485-24.99,18.737,62.472Zm58.022,38.023-19.173-63.924,66.828-44.553,85.318,19.825Zm173.009-39.782L1661.888,1054.3l132.054-88.04,49.37,11.472Zm85.142-19.784-83.381,19.374,10.865-36.225Zm-73.7-18.354-48.348-11.235,64.644-43.1Zm17.136-57.134L1727.818,830.8l85.318-19.825,66.828,44.554Zm58.021-38.023-56.222,37.481,18.737-62.472Zm-38.454-27.22-66.146-44.1,19.37-64.582L1918.9,725.7Zm37-129.375-83.381,19.375,10.865-36.225Zm-73.7-18.353-48.348-11.234,64.644-43.1Zm17.135-57.134L1727.818,560.7l85.318-19.825,66.828,44.554Zm58.022-38.023-56.222,37.482,18.737-62.473Zm-38.454-27.219-66.146-44.1,19.37-64.583L1918.9,455.6Zm37-129.375L1833.978,474.1l10.865-36.225Zm-73.7-18.353-48.348-11.234,64.644-43.1Zm17.135-57.134L1727.818,290.59l85.318-19.825,66.828,44.553Zm58.022-38.023L1862.591,378.7l18.737-62.474ZM1880.359,314l-66.146-44.1,19.37-64.582,85.318-19.825Zm37-129.376L1833.978,204l10.865-36.225Zm-73.7-18.353-48.348-11.235,64.644-43.1Zm37.672-120.148,37.485,24.991L1862.591,108.6ZM1813.136.66l66.827,44.553-19.172,63.924L1727.818,20.485Zm-87.078,20.234,132.055,88.04-170.33-39.578-11.094-36.989Zm-50.9,11.827,10.865,36.225-83.381-19.374Zm11.261,37.544,19.369,64.582-66.146,44.1L1601.1,50.44ZM1600,52.236l38.276,127.621L1600,205.375l-38.276-25.518Zm-39.641,126.711-66.146-44.1,19.37-64.582L1598.9,50.44ZM1524.843,32.721l72.516,16.85-83.381,19.374Zm-50.9-11.827,49.37,11.472-11.094,36.989-170.33,39.578ZM1386.864.66l85.319,19.825-132.974,88.652-19.172-63.924Zm-68.192,45.463,18.737,62.473-56.222-37.482Zm19.241,64.392c0,.005.008.009.01.014a.578.578,0,0,0,.1.134l16.786,55.964-74.7,17.357a1.075,1.075,0,0,0-.114,0,1,1,0,0,0-.118,0l-74.7-17.357,16.786-55.964a.576.576,0,0,0,.1-.134s.008-.009.01-.014L1280,71.9Zm-96.585-64.392,37.485,24.991L1222.591,108.6ZM1173.136.66l66.827,44.553-19.172,63.924L1087.818,20.485Zm-87.078,20.234,132.055,88.04L1047.782,69.355l-11.094-36.989Zm-50.9,11.827,10.865,36.225L962.641,49.571Zm11.26,37.544,19.37,64.582-66.146,44.1L961.1,50.44ZM960,52.236l38.276,127.621L960,205.375l-38.276-25.518ZM920.359,178.947l-66.146-44.1,19.369-64.582L958.9,50.44ZM884.843,32.721l72.516,16.85L873.978,68.946Zm-50.9-11.827,49.37,11.472L872.218,69.355l-170.33,39.579ZM746.864.66l85.318,19.825L699.208,109.137,680.036,45.213ZM678.671,46.123,697.408,108.6,641.187,71.113Zm19.242,64.392a.146.146,0,0,0,.011.013.543.543,0,0,0,.1.133l16.785,55.965-74.7,17.357c-.036,0-.074,0-.112,0s-.076,0-.112,0l-74.7-17.357,16.786-55.966a.566.566,0,0,0,.1-.133l.011-.013L640,71.9ZM601.329,46.123l37.484,24.99L582.592,108.6ZM533.136.66l66.828,44.553-19.172,63.924L447.818,20.485ZM446.058,20.894l132.055,88.04L407.782,69.355,396.688,32.366Zm-50.9,11.828,10.864,36.224-83.38-19.374Zm11.26,37.543,19.37,64.583-66.146,44.1L321.1,50.44ZM320,52.239l38.275,127.618L320,205.375l-38.275-25.518ZM280.359,178.947l-66.146-44.1,19.37-64.583L318.9,50.44ZM244.843,32.722l72.516,16.85-83.38,19.374Zm-50.9-11.828,49.37,11.472L232.218,69.355,61.887,108.934ZM1.187,71.113l37.484-24.99L57.408,108.6Zm38.849-25.9L106.864.66l85.318,19.825L59.208,109.137Zm20.012,66.726,64.645,43.1L76.344,166.271Zm15.109,55.835L86.021,204,2.641,184.624ZM1.1,185.493l85.318,19.825,19.37,64.582L39.641,314Zm.089,155.726,37.484-24.991L57.408,378.7Zm38.849-25.9,66.828-44.553,85.318,19.825L59.208,379.243Zm20.012,66.726,64.645,43.1L76.344,436.377ZM75.157,437.88,86.021,474.1,2.641,454.73ZM1.1,455.6l85.318,19.825,19.37,64.583-66.146,44.1Zm.089,155.726,37.484-24.99,18.737,62.472Zm38.849-25.9,66.828-44.554L192.182,560.7,59.208,649.348Zm20.012,66.726,64.644,43.1L76.344,706.482Zm15.109,55.835L86.021,744.21,2.641,724.835ZM1.1,725.7l85.318,19.825,19.37,64.582-66.146,44.1Zm.089,155.726L38.671,856.44l18.737,62.472Zm38.849-25.9,66.828-44.554L192.182,830.8,59.208,919.454Zm20.012,66.725,64.645,43.1L76.344,976.588ZM2.641,994.941l72.516-16.85,10.864,36.224Zm85.141,19.784L76.688,977.735l49.37-11.472,132.054,88.04Zm173.01,39.782L127.818,965.855l85.318-19.825,66.828,44.554Zm1.8-.542,18.737-62.472,37.484,24.99Zm19.132-63.791L320,862.555l38.276,127.619L320,1015.692Zm39.463,26.309,37.484-24.99,18.737,62.472Zm58.021,38.023-19.172-63.924,66.828-44.554,85.318,19.825Zm173.01-39.782L381.888,1054.3l132.054-88.04,49.37,11.472Zm1.762-.409,10.864-36.225,72.516,16.85ZM640.111,994.3c-.036,0-.074,0-.111,0s-.075,0-.111,0l-74.7-17.357,16.786-55.966a.578.578,0,0,0,.1-.133s.008-.009.01-.013L640,882.222l57.914,38.611s.007.008.01.013a.541.541,0,0,0,.1.133l16.785,55.966Zm2.53.64,72.516-16.85,10.865,36.225Zm85.141,19.784-11.094-36.989,49.37-11.472,132.054,88.04Zm173.01,39.782L767.818,965.855l85.318-19.825,66.827,44.553Zm1.8-.541,18.737-62.472,37.485,24.99Zm19.133-63.792L960,862.552l38.276,127.621L960,1015.692Zm39.463,26.31,37.485-24.99,18.737,62.472Zm58.022,38.023-19.172-63.924,66.827-44.553,85.318,19.825Zm173.009-39.782-170.33,39.578,132.054-88.04,49.37,11.472Zm1.761-.409,10.865-36.225,72.516,16.85Zm86.135-20.015a1.11,1.11,0,0,0-.124,0,.994.994,0,0,0-.1,0l-74.7-17.358,16.786-55.964a.577.577,0,0,0,.1-.134.088.088,0,0,1,.01-.013L1280,882.222l57.913,38.611a.1.1,0,0,1,.01.013.579.579,0,0,0,.1.134l16.786,55.964Zm2.527.64,72.516-16.85,10.865,36.225Zm85.142,19.784-11.094-36.989,49.37-11.472,132.054,88.04Zm40.036-48.87,85.318-19.825,66.828,44.553-19.173,63.924Z"/></g></svg>