<svg xmlns="http://www.w3.org/2000/svg" width="19.028" height="19.028" viewBox="0 0 19.028 19.028"><defs><style>.a{fill:#fff;}</style></defs><path class="a" d="M13.082,0H5.946A5.947,5.947,0,0,0,0,5.946v7.136a5.947,5.947,0,0,0,5.946,5.946h7.136a5.947,5.947,0,0,0,5.946-5.946V5.946A5.947,5.947,0,0,0,13.082,0Zm4.162,13.082a4.167,4.167,0,0,1-4.162,4.162H5.946a4.167,4.167,0,0,1-4.162-4.162V5.946A4.167,4.167,0,0,1,5.946,1.784h7.136a4.167,4.167,0,0,1,4.162,4.162Z"/><g transform="translate(4.681 4.681)"><path class="a" d="M132.834,128a4.834,4.834,0,1,0,4.834,4.834A4.834,4.834,0,0,0,132.834,128Zm0,7.855a3.021,3.021,0,1,1,3.021-3.021A3.025,3.025,0,0,1,132.834,135.855Z" transform="translate(-128 -128)"/></g><g transform="translate(13.978 3.762)"><circle class="a" cx="0.644" cy="0.644" r="0.644"/></g></svg>