<svg xmlns="http://www.w3.org/2000/svg" width="40.227" height="36.875" viewBox="0 0 40.227 36.875"><path d="M34.7-1.332H5.531A5.527,5.527,0,0,0,0,4.178V21.962a5.527,5.527,0,0,0,5.511,5.51v8.07l11.64-8.07H34.7a5.527,5.527,0,0,0,5.531-5.51V4.178A5.527,5.527,0,0,0,34.7-1.332Zm3.173,23.294A3.171,3.171,0,0,1,34.7,25.124H16.412L7.869,31.048V25.124H5.531a3.171,3.171,0,0,1-3.173-3.162V4.178A3.171,3.171,0,0,1,5.531,1.016H34.7a3.171,3.171,0,0,1,3.173,3.162Zm0,0" transform="translate(-0.001 1.332)"/><path d="M171.293,131.172h18.766v2.366H171.293Zm0,0" transform="translate(-160.562 -122.878)"/><path d="M171.293,211.172h18.766v2.366H171.293Zm0,0" transform="translate(-160.562 -197.87)"/><path d="M171.293,291.172h18.766v2.366H171.293Zm0,0" transform="translate(-160.562 -272.863)"/></svg>