<svg xmlns="http://www.w3.org/2000/svg" width="64.548" height="160.075" viewBox="0 0 64.548 160.075"><defs><style>.a{fill:#e6d61a;}</style></defs><path class="a" d="M33.51,689.091a3.011,3.011,0,0,0-.684-2.309c-.514-.727-.94-1.324-.94-1.324a1.682,1.682,0,0,1-.556.469c-.3.128-.768-.171-.768-.171a1.187,1.187,0,0,0-.684.641,3.307,3.307,0,0,0-.342,1.2,1.208,1.208,0,0,1-.77-1.153,2.027,2.027,0,0,1,.727-1.539c.385-.3.982-.812.982-.812l-.727-.555-2.051.3a13.771,13.771,0,0,1-1.5-5.17c0-2.308.384-4.916,2.307-6.625a12.212,12.212,0,0,1,5.77-2.522,6.137,6.137,0,0,1,2.821,1.026,4.837,4.837,0,0,1,1.239.9,4.555,4.555,0,0,0,1.026.983,1.931,1.931,0,0,1,1.2.983,5.624,5.624,0,0,1,.385,1.025,14.173,14.173,0,0,1,1.368.983,3.194,3.194,0,0,1,.64,1.881,7.133,7.133,0,0,0,.513,1.625,16.394,16.394,0,0,1,2.692-1.155,33.131,33.131,0,0,1,3.675-.64s3.376-1.966,4.744-2.864a22.4,22.4,0,0,1,2.351-1.368s1.794-1.923,3.461-3.461,2.992-3.034,4.445-4.146,2.266-1.709,3.8-2.864a22.859,22.859,0,0,0,3.675-3.247c1.153-1.281,2.136-2.308,3.034-3.2a12.12,12.12,0,0,0,2.009-2.18,5.785,5.785,0,0,0,.684-1.668c.043-.47,0-1.2.512-1.623a3.169,3.169,0,0,0,.77-.983s.6-.044.768.341a.965.965,0,0,1-.085,1.025c-.214.256-.514.6-.514.6l1.2-.685.941-.214a7.523,7.523,0,0,1,1.153-.6,3.442,3.442,0,0,1,1.6-.193.388.388,0,0,1,.289.609.28.28,0,0,0-.032.321.8.8,0,0,1,.161.48,1.221,1.221,0,0,1-.192.577,2.227,2.227,0,0,1,.128.544,3.436,3.436,0,0,1-.064.514l-.128.289a1.809,1.809,0,0,1,.192.577.733.733,0,0,1-.416.8A3.577,3.577,0,0,0,83.2,655.53a16.455,16.455,0,0,1-2.788,2.63,2.779,2.779,0,0,0-1.283.544c-.256.289-1.634,2.66-2.372,3.943s-4.3,7.244-5.673,8.654a82.681,82.681,0,0,1-7.436,6.218c-2.083,1.508-7.66,5.93-9.007,6.763a40.88,40.88,0,0,1-4.9,2.149s.256,2.757.321,4.551.545,5.834.8,7.726a56.6,56.6,0,0,1-.1,7.467c-.064,1.284.352,4.52.192,5.835a17.435,17.435,0,0,1-1.186,4.2c-.449.992-1.153,2.757-1.153,2.757l1.25,1.857-.288.9a67.273,67.273,0,0,1,11.6,3.687c6.379,2.661,8.783,3.686,10,5.417a4.308,4.308,0,0,1,.77,4.1,9.093,9.093,0,0,0-.706,3.11c-.1,1.377-.352,4.07-.352,4.871s-.192,2.725-.192,2.725a4.388,4.388,0,0,1-1.09.8,37.417,37.417,0,0,1-3.718.511s-2.436,3.847-3.718,6.09a60.355,60.355,0,0,0-4.039,8.271,8.977,8.977,0,0,0-.449,2.5s.545.578.416,1.026a9.616,9.616,0,0,0-.127,1.666A4.138,4.138,0,0,1,60,765.955c.9.1,1.539.448,1.539.9a1.37,1.37,0,0,1-.577,1.154,8.373,8.373,0,0,1-.8.545l.705.289.674.705s1.507,0,2.788.032,2.18.352,2.051.609a10.2,10.2,0,0,1-2.4,2.533,15.743,15.743,0,0,1-3.782,1.794c-1.218.321-2.4-.128-3.526,0a12.6,12.6,0,0,0-3.334,1.026,8.163,8.163,0,0,1-3.911.544,2.035,2.035,0,0,1-1.506-1.729,13.212,13.212,0,0,1-.032-2.245,9.992,9.992,0,0,1,1.026-2.692,11.031,11.031,0,0,0,1.506-2.948c.256-1.122.8-3.463,1.315-5.8s1.282-5.93,1.795-8.429,2.116-9.3,2.116-9.3-1.859-.673-4.006-1.347-4.52-1.249-4.52-1.249a60.454,60.454,0,0,1,.8,8.751c-.1,3.269-.994,11.026-1.091,12.821s.514,6.86.256,8.847-.513,2.532-1.057,3.237-2.116,3.687-2.116,3.687a1.43,1.43,0,0,0-.833.642c-.353.544-1.315,1.827-1.315,1.827s-.352,2.788-.609,4.231a51.848,51.848,0,0,0-.929,7.212,12.3,12.3,0,0,0,.705,5,7.964,7.964,0,0,0,.8,1.54l.9-.579a2.23,2.23,0,0,1,.769-.8c.449-.225.641.032.641.352a5.406,5.406,0,0,1-.224,1.346,1.926,1.926,0,0,1-.289.577,1.965,1.965,0,0,1,.9.193,6.905,6.905,0,0,1,1.378.737c.353.288.481.512.225.577s-.588-.268-.972-.418-.791-.234-.855-.041.384.715,1.089,1.1a6.285,6.285,0,0,1,1.539.929c.128.224.225.449.609.32s.705-.1.769.193.993.352,1.923.1a4.484,4.484,0,0,1,2.564.1,1.413,1.413,0,0,1,.8,1.057c-.032.161-.064.45-.064.45a5.623,5.623,0,0,1-1.924,1.249,8.575,8.575,0,0,0-2.821,1.54,8.533,8.533,0,0,0-1.474,2.018c-.256.481-.385.449-.385.449a5.345,5.345,0,0,1-2.019-.287c-1.282-.385-2.821-1.186-4.52-1.6a24.319,24.319,0,0,0-4.968-.674A3.535,3.535,0,0,1,32.43,805.7a4.661,4.661,0,0,1-.833-2.852,2.909,2.909,0,0,1,.545-1.667,5.857,5.857,0,0,0,.641-.833c.065-.193-.673-.77-.705-1.379a1.186,1.186,0,0,1,.321-1.058c.193-.159.738-.031.738-.031a2.6,2.6,0,0,1-.385-1.38c.1-.576,1.09-.833,1.09-.833s-.161-2.821-.288-4.552a55.251,55.251,0,0,0-.705-5.9c-.321-1.538-.834-3.813-.93-4.9s-.1-1.859-.1-1.859l-.865-.674a11.168,11.168,0,0,0,.865-1.923,12.274,12.274,0,0,0,.706-3.557,18.293,18.293,0,0,1,.449-3.943,20.635,20.635,0,0,1,.993-2.5,10.753,10.753,0,0,1-.706-2.245c-.16-1.027-.64-3.751-1.057-5.288a19.593,19.593,0,0,1-1.091-4.233c-.064-1.473.129-3.461.064-4.23A24.579,24.579,0,0,0,30.8,747.3a10.381,10.381,0,0,0-1.474-3.717,15,15,0,0,1-2.564-5.32c-.2-.7-.449-2.757-.449-2.757a8.813,8.813,0,0,1-2.083.192,3.678,3.678,0,0,1-1.956-.865,5.472,5.472,0,0,1-1.891-2.212,2.683,2.683,0,0,1,.481-2.436c.513-.769,1.763-2.437,2.116-2.917s.576-.738.576-.738v-1.249s.481-.609.9-1.122.962-.48,1.8-.576,1.73-.226,1.73-.226a5.656,5.656,0,0,0,.93-.673,2.751,2.751,0,0,0,.481-.642v-1.729s.48-.352.512-.642-.609-.352-.609-.352l.321-2.084.865-.032a1.062,1.062,0,0,0,.353-.7c-.032-.353-.93-3.814-1.41-5.706s-1.154-4.423-1.443-5.193a19.887,19.887,0,0,1-.673-5.225,14.2,14.2,0,0,1,1.282-5.641,15.11,15.11,0,0,1,2.725-3.365A13.364,13.364,0,0,0,33.51,689.091Z" transform="translate(-20.257 -649.514)"/></svg>