<svg xmlns="http://www.w3.org/2000/svg" width="122.26" height="173.082" viewBox="0 0 122.26 173.082"><defs><style>.a{fill:#e6d61a;fill-rule:evenodd;}</style></defs><g transform="translate(-126.285 -141.836)"><path class="a" d="M326.069,273.219l.355-.6a1.351,1.351,0,0,0-1.315-.354,13.11,13.11,0,0,1-4.051.219,3,3,0,0,1-1.212-.361,2.8,2.8,0,0,0-1.925-.087c-1.01.234-2.009.514-3.061.787a2.283,2.283,0,0,1-.781-1.147,1.155,1.155,0,0,0-1.129-.938.874.874,0,0,1-.638-.348,7.555,7.555,0,0,1-.969-.983,1.814,1.814,0,0,0-1.058-.709,2.4,2.4,0,0,1-.449-.347c-.2-.145-.41-.278-.7-.475-.179.386-.34.7-.47,1.022-.426,1.064-.832,2.135-1.264,3.2a8.18,8.18,0,0,0-.685,2.892,9.1,9.1,0,0,1-.192,1.447,38.625,38.625,0,0,1-1.246,4.865c-.431,1.309-.9,2.609-1.276,3.934-.46,1.61-.828,3.246-1.268,4.862a26.047,26.047,0,0,0-.666,4.4,4.122,4.122,0,0,1-.32,1.323,4.117,4.117,0,0,0-.151,1.18c-.026.247-.03.5-.079.743a3.068,3.068,0,0,0-.045,1.509.772.772,0,0,0,.427.508,12.317,12.317,0,0,1,1.08.653c.545.365,1.081.745,1.615,1.128.171.123.317.28.482.411.764.6,1.533,1.2,2.3,1.81a1.7,1.7,0,0,1,.4.391,3.043,3.043,0,0,0,1.1,1.034,1,1,0,0,1,.265.174c.09.1.23.261.2.344-.047.135-.213.321-.329.322a3.49,3.49,0,0,1-1.178-.125,10.69,10.69,0,0,1-1.349-.706,1.821,1.821,0,0,0-.6-.213c.594,2.7,1.447,5.324,1.462,8.1a.751.751,0,0,1-1-.2c-.364-.413-.294-.9-.419-1.417-.185-.763-.522-1.532-.655-2.3a7.216,7.216,0,0,0-1.167-2.445c-.037-.079-.211-.088-.379-.217-.079.285-.153.491-.193.7-.34,1.79-.649,3.587-1.021,5.371a13.522,13.522,0,0,1-.638,1.932.561.561,0,0,1-1,.179c-.549-.6-.252-1.288-.037-2.106.2-.758.509-3.967.619-4.807a3.96,3.96,0,0,0-.1-1.828c-.355.036-.417.26-.505.436-.372.74-.734,1.485-1.1,2.229-.673,1.372-1.072,2.009-1.746,3.38-.056.113-.427.808-.5.909-.359.476-.626.624-1.054.2-.449-.447-.146-.9-.121-1.5a.231.231,0,0,1-.224-.028c-.421-.2-.582-.653-.462-1.329.2-1.106.238-1.762.536-3.018.183-.543.4-1.076.611-1.607a.806.806,0,0,0-.064-.723c-.476-.948-.956-1.895-1.366-2.871a3.053,3.053,0,0,1-.131-1.181c.007-.632.082-1.263.1-1.9.054-1.591.1-3.183.138-4.775.049-2.378.112-4.756.109-7.134a24.737,24.737,0,0,1,.307-3.159,14.494,14.494,0,0,0,.125-3.934,11.61,11.61,0,0,1,.033-1.965,1.4,1.4,0,0,0,.019-.253,7.878,7.878,0,0,1,.871-4.372c.575-1.369,1.192-2.721,1.8-4.075.392-.871.841-1.718,1.193-2.6.311-.786.531-1.609.778-2.419a23.2,23.2,0,0,1,1.413-3.882c.443-.866.766-1.793,1.162-2.683.6-1.338,1.209-2.668,1.811-4,.078-.174.132-.358.195-.539a.613.613,0,0,0-.09-.592,25.969,25.969,0,0,1-4.04-9.48,8.763,8.763,0,0,1-.1-2.029c.057-1.185.192-2.366.281-3.549a51.6,51.6,0,0,1,.992-7.115c.407-1.864.729-3.749,1.221-5.589a47.269,47.269,0,0,1,1.566-4.64,25.354,25.354,0,0,1,2.026-4.177c.574-.941,1.007-1.966,1.554-2.925a12.36,12.36,0,0,1,1.747-2.579,2.484,2.484,0,0,0,.278-.5,4.92,4.92,0,0,0-.542-.078c-2-.035-3.987-.126-5.971-.356-1.559-.181-3.12-.345-4.682-.5-1.054-.108-2.112-.183-3.166-.3-.462-.049-.917-.162-1.377-.236-1.066-.173-2.135-.323-3.2-.515-1.125-.2-2.244-.438-3.365-.667-.892-.182-1.775-.419-2.674-.553a5.028,5.028,0,0,1-2.54-1.235,4.612,4.612,0,0,1-1.673-3.227c-.088-1.12-.2-2.244-.179-3.365a20.986,20.986,0,0,1,.85-5.961,23.4,23.4,0,0,0,.756-3.67c.331-2.329.711-4.65,1.035-6.98.287-2.059.625-4.106,1.036-6.145.284-1.41.415-2.851.624-4.276.126-.859.315-1.712.4-2.575a20.012,20.012,0,0,0,.13-4.568,15.211,15.211,0,0,1-.021-1.656,46.277,46.277,0,0,1,.2-4.957,1.185,1.185,0,0,0-.012-.316,3.6,3.6,0,0,1,.045-1.577,4.272,4.272,0,0,0,.128-1.007,26.412,26.412,0,0,1,.924-6.472,3.428,3.428,0,0,0,.161-1.813,1.035,1.035,0,0,1,.129-.609c.446-1.008.911-2.008,1.365-3.013.1-.227.233-.409.506-.419a5.3,5.3,0,0,0,2.268-.913c.5-.269.7-.263.966.217a1.919,1.919,0,0,1-.395,2.419c-.452.407-.37.427-.156,1.006a5.109,5.109,0,0,1,.237,1.736,4.356,4.356,0,0,1-.427,1.9,2.948,2.948,0,0,0-.273,1.234,11.565,11.565,0,0,0,.346,3.277,1.473,1.473,0,0,0,.916,1.064,2.227,2.227,0,0,1,.6.348q1.508,1.22,2.995,2.466a3.472,3.472,0,0,1,.532.631,2.121,2.121,0,0,1-.179,2.833,9.949,9.949,0,0,1-1.743,1.27q-1.258.922-2.508,1.854a.843.843,0,0,0-.347.778c.073,1.163.158,2.326.214,3.49.039.806.049,1.613.053,2.42,0,.829-.059,1.66-.01,2.485.055.93.45,5.639.531,6.909.075,1.162.233,2.319.3,3.482a27.173,27.173,0,0,1,.107,4.444,23.088,23.088,0,0,1-.437,3.146c-.292,1.192-.606,2.379-.92,3.566-.086.326-.044.559.28.68a12.4,12.4,0,0,0,3.583,1.053c.634.038,1.268.12,1.9.113.676-.008,1.351-.1,2.026-.151.253-.021.5-.054.757-.073,1.225-.09,2.454-.143,3.674-.277.755-.083,1.491-.321,2.245-.43.963-.14,1.932-.252,2.9-.319,1.12-.078,2.245-.092,3.367-.14.677-.029,1.354-.12,2.029-.1,1.205.039,2.408.141,3.612.219.7.045,1.4.074,2.092.144,1.221.122,2.444.237,3.657.418,1,.15,2,.38,2.989.594a9.2,9.2,0,0,1,1.032.312c.822.281,1.638.581,2.463.851a1.367,1.367,0,0,0,.609.038c1.421-.217,2.852-.39,4.255-.7a22.987,22.987,0,0,0,3.78-1.087,82.75,82.75,0,0,1,8.1-2.62c1.33-.388,12.458-2.12,14.126-2.4.751-.128,1.5-.288,2.251-.4.941-.138,1.885-.263,2.832-.351a19.691,19.691,0,0,1,2.409-.116,3.767,3.767,0,0,1,2.189.521,2.092,2.092,0,0,1,.41.3,15.6,15.6,0,0,1,2.41,3.418c.548,1.2,1.19,2.347,1.794,3.517a52.846,52.846,0,0,0,4.52,7.38,77.416,77.416,0,0,1,4.966,7.55c.806,1.394,1.781,2.693,2.713,4.011.982,1.387,2.006,2.744,3.008,4.116a24.65,24.65,0,0,0,3.355,3.653,21.472,21.472,0,0,1,5.062,6.64c.355.746.68,1.509.975,2.281a20.64,20.64,0,0,0,2.532,4.98,2.479,2.479,0,0,1,.282,1.345c.066.629.015,1.272.119,1.892a1.458,1.458,0,0,1-.447,1.384c-.44.429-.9.842-1.366,1.243-.355.306-.707.22-.806-.243a1.344,1.344,0,0,0-.53-.827.775.775,0,0,1-.294-.673c.006-.212-.012-.425-.007-.637a1.641,1.641,0,0,0-.442-1.159,3.218,3.218,0,0,1-.518-.718,3.31,3.31,0,0,0-1.1-1.295c-.464-.334-.925-.676-1.365-1.041a5.792,5.792,0,0,0-2.814-1.085c-1.208-.219-2.427-.382-3.628-.635a9.5,9.5,0,0,1-1.926-.639,1.917,1.917,0,0,1-1.216-1.849,9.916,9.916,0,0,1,.969-4.185c.705-1.578.582-1.311-.406-2.4-.314-.345-.6-.717-.931-1.043-.56-.55-1.129-1.093-1.724-1.6-.982-.842-1.973-1.676-2.991-2.474-1.135-.889-2.338-1.694-3.451-2.608-1.787-1.468-3.563-2.955-5.271-4.514a18.351,18.351,0,0,1-2.93-3.669,30.369,30.369,0,0,1-2.238-4.253c-.224-.5-1.513-3.551-1.923-4.413-.417-.606-.421-.881-1.036-.9-.862-.025-1.3-.187-4.729,1.176a32.267,32.267,0,0,0-2.832,1.578,50.97,50.97,0,0,1-9.054,3.341c-2.034.6-4.091,1.092-6.158,1.559a2.757,2.757,0,0,0-1.545.953,9.839,9.839,0,0,0-1.176,1.882,10.775,10.775,0,0,1-3.485,4.465c-.706.467-1.4.951-2.1,1.424a7.3,7.3,0,0,1-4.707.8c-.945-.1-1.888-.229-2.832-.339-.321-.037-1.352,1.188-1.59,1.269-.291.1-.934,1.141-1.166,1.339a3.785,3.785,0,0,0-1.017,2.136,16.45,16.45,0,0,0-.423,4.164c0,.778-.218,1.554-.27,2.335-.137,2.031-.649,4.024-.6,6.073.021.934.1,4.165.126,4.64.088,1.928.169,3.856.269,5.783a1.846,1.846,0,0,0,.2.73,2.115,2.115,0,0,1,.158,1.368c-.112.668-.309,1.324-.4,1.994a5.151,5.151,0,0,0,0,1.442c.06.4.212.416.641.394.481-.026.965-.006,1.519-.006a3.661,3.661,0,0,0-.05-.524,1.756,1.756,0,0,1,.727-2.011,2.047,2.047,0,0,1,.361-.26,2.109,2.109,0,0,0,.92-.908,3.021,3.021,0,0,1,2.057-1.282,3.65,3.65,0,0,1,3.783,1.694,1.454,1.454,0,0,1,.243.583,1.082,1.082,0,0,0,.5.9c.273.163.282.578.036.919a.753.753,0,0,0-.042.946,1.956,1.956,0,0,1-.082,1.659,3.445,3.445,0,0,1-1.361,1.833c1.271,1.205,1.54,2.788,2.01,4.275a7.664,7.664,0,0,1,.361,1.67,8.045,8.045,0,0,1-.944,3.792,21.115,21.115,0,0,1-1.367,2.589,19.706,19.706,0,0,1-1.25,1.679c-.295.388-.587.778-.893,1.156a2.388,2.388,0,0,1-1.469.934,2.966,2.966,0,0,0-.624.26c.061.631.062.633-.441.937-.145.088-.295.167-.442.251Z" transform="translate(-155.072)"/></g></svg>