<svg xmlns="http://www.w3.org/2000/svg" width="91.357" height="221.832" viewBox="0 0 91.357 221.832"><defs><style>.a{fill:#e6d61a;}.b{fill:#fff;}</style></defs><g transform="translate(-24.958 -19.031)"><path class="a" d="M115.232,231.329a2.574,2.574,0,0,0-2.1.23,5.661,5.661,0,0,0-1.26,1.412,7.053,7.053,0,0,0-1.451.42,4.412,4.412,0,0,1-1.107.343l-.344-.114a4.319,4.319,0,0,1,1.03-.65c.5-.191.993-.038,1.108-.267s-.382-.306-1.069-.153a5.086,5.086,0,0,0-1.489.725,3.77,3.77,0,0,0-1.6-.42,3.355,3.355,0,0,0-1.6.5,10.258,10.258,0,0,1-1.031-.573c-.687-.42-.916-.84-2.825-2.329s-4.352-3.741-5.65-4.81-4.7-3.13-4.7-3.13l.076-.23s-6.3-5-6.719-5.306a6.938,6.938,0,0,0-1.68-.917,3.8,3.8,0,0,0-1.985-.153,2.12,2.12,0,0,0-.459-.573,19.106,19.106,0,0,0-3.855-2.214c-2.444-1.222-9.964-4.5-10.651-4.81s-1.832-1.069-2.443-.954-.726-.038-.726-.038l.115-.381-.535-.879-.267.153-.077.344-1.145-.305a1.074,1.074,0,0,0-.381-.458c-.305-.229-.687-.534-.687-.534a6.175,6.175,0,0,1-.038-.687,1.172,1.172,0,0,0-.267-.687l.763-.076v-.382l-1.794-.573a2.847,2.847,0,0,1-.344-.916c-.191-.725-.573-2.786-.573-2.786l-.229-.688s-.076-1.871-.076-2.9a8.826,8.826,0,0,1,.916-3.168c.42-.993.993-2.71.993-2.71a6.587,6.587,0,0,0,.611.954,11.671,11.671,0,0,0,1.985,2.176c.954.764,2.787,2.443,3.817,3.207a4.753,4.753,0,0,0,2.252,1.107A3.49,3.49,0,0,0,70,196.934a2.725,2.725,0,0,0,.839-1.985,7.615,7.615,0,0,0-.61-2.52A3.418,3.418,0,0,0,69,190.864a4.159,4.159,0,0,1-1.336-1.451,12.487,12.487,0,0,0-1.794-2.023,7.276,7.276,0,0,1-1.565-2.4,10.677,10.677,0,0,0-2.787-3.7,7.645,7.645,0,0,0-4.809-1.871c-1.756-.229-4.352-.725-4.352-.725s.229-.305.5-.725a8.35,8.35,0,0,0,.611-1.946,11.079,11.079,0,0,1,.458-1.489c.229-.611.267-1.068.42-1.412s-.344-.42-.344-.42-.229-1.6-.305-2.1a4.7,4.7,0,0,0-.725-1.986,4.966,4.966,0,0,0-2.9-1.756,9.192,9.192,0,0,0-3.856.344,4.632,4.632,0,0,0-2.366,2.443c-.382.993.076.879.076.879l-.076.725-.5.535a1.248,1.248,0,0,1,.191.725,2.925,2.925,0,0,0,.076.84s-.572.038-.5.725a5.212,5.212,0,0,0,.687,2.138,1.223,1.223,0,0,0,.8.611s0,.382-.038.8A2.117,2.117,0,0,1,44,178.953a5.857,5.857,0,0,1-1.871,1.222c-.878.458-2.4,1.3-3.321,1.68a10.279,10.279,0,0,0-3.168,3.055,15.3,15.3,0,0,1-2.176,2.481,10.215,10.215,0,0,0-1.642,2.711,28.453,28.453,0,0,1-1.909,3.359c-.611.84-1.756,3.054-2.4,4.161s-2.062,3.856-2.4,4.467,0,1.412.267,2.1.763,1.947,1.6,3.894a47.688,47.688,0,0,0,3.359,5.535,5.632,5.632,0,0,1,.725,1.756c.076.382-.038.84.038,1.412s.534,1.565.649,2.367a1.892,1.892,0,0,0,.84,1.6,1.249,1.249,0,0,0,1.145.3.994.994,0,0,0,.611.344,2.154,2.154,0,0,0,.84-.038s.038.191.42.267a1.725,1.725,0,0,0,.687,0,.591.591,0,0,0,.687.076c.344-.229.153-.687-.039-1.26a5.345,5.345,0,0,1-.229-1.183.8.8,0,0,0,.458.305,1.746,1.746,0,0,0,.573-.038,3.438,3.438,0,0,1-.191-.687c-.115-.534.038-.725-.153-1.145a6.145,6.145,0,0,1-.5-1.145,3.132,3.132,0,0,0-.877-1.565c-.611-.649-1.26-1.107-1.68-1.565a12.4,12.4,0,0,1-1.3-2.672,17.455,17.455,0,0,1-1.146-3.168,9.614,9.614,0,0,0-.3-2.1c-.267-1.068-.916-2.978-.916-2.978a6.522,6.522,0,0,1,.42-.649c.229-.305.993-.916,1.947-1.794a27.144,27.144,0,0,0,2.6-3.284s.611,1.222,1.107,2.138a32.569,32.569,0,0,1,1.794,4.276,3.044,3.044,0,0,0,.993,1.527s.153.42.344.916a10.017,10.017,0,0,0,.458.993l-.458.229.153,1.641.458-.038a.637.637,0,0,1,.115.344c0,.191.382.382.382.382l-.305.916s-.84.344-.916.954a1.979,1.979,0,0,0,.305,1.183s-.305.611-.649,1.222-.725,1.26-.725,1.26a7.527,7.527,0,0,0-.993,1.526.668.668,0,0,0,.5.84c.42.115.687-.076.725-.534a3.642,3.642,0,0,1,.5-1.183,3.9,3.9,0,0,1,.763,1.183,1.542,1.542,0,0,0,.382.726l-.344,2.71a2.289,2.289,0,0,0-.573,1.221c-.038.649,0,2.94.038,3.436a1,1,0,0,0,.267.687,1.024,1.024,0,0,0,.115.764c.229.42.954.534,2.1.19a2.043,2.043,0,0,0,1.6-1.336.477.477,0,0,0-.305-.687A7.475,7.475,0,0,1,43.5,222.7c.114-.687-.115-.877-.5-1.26s-.267-.61.115-.344a1.873,1.873,0,0,1,.572.726l.649.191s.573,1.909.84,3.016,1.336,2.137,2.4,4.084,3.932,6.948,3.932,6.948a4.8,4.8,0,0,0-.382,1.756,3.977,3.977,0,0,0,.534,1.794,14.343,14.343,0,0,0-.725,2.329A10.549,10.549,0,0,0,51.213,245l1.3-.038a16.936,16.936,0,0,0-.038,2.825,27.749,27.749,0,0,0,1.183,5.039c.535,1.832,2.215,6.49,2.558,7.635a9.012,9.012,0,0,1,.267,2.6,2.357,2.357,0,0,0-1.069.115c-.305.191-.153.535.343.84a1.725,1.725,0,0,1,.916,1.374c0,.573-.229,2.1-.229,2.1a4.232,4.232,0,0,1,.191,1.107,1.227,1.227,0,0,0,1.26,1.146,2.2,2.2,0,0,0,1.718-.573,12.134,12.134,0,0,0,1.374-1.871,3.6,3.6,0,0,0,.954.153,6.856,6.856,0,0,0,2.6-.42c.649-.3.879-2.138.916-2.825s-.3-1.031-1.221-1.107a9.182,9.182,0,0,0-1.6,0l-.534-.611-.038-.267,1.947.382.076-.229-2.175-.878v-.8a1.121,1.121,0,0,0-.763-1.107,1.675,1.675,0,0,0-1.145-.076,9.129,9.129,0,0,1-.5-2.1,26.527,26.527,0,0,1,.038-3.436,58.644,58.644,0,0,0,.077-6.8c-.153-1.451-.649-3.97-.649-3.97l.115-.267.993-.573a10.371,10.371,0,0,1-.306-1.222c-.076-.5.153-1.222.038-2.214s-.572-3.169-.954-5.535-.992-5.23-.992-5.23a8.289,8.289,0,0,0,1.068-.5,3.346,3.346,0,0,0,1.108-1.451c.267-.573-.344-1.183-.344-1.183s-.305-.115-.5-.8a4.6,4.6,0,0,1-.153-1.336l-1.183-.764-.42-2.634a3.111,3.111,0,0,0,1.3.726,4.638,4.638,0,0,0,1.718,0,8.564,8.564,0,0,0,.763.916,19.572,19.572,0,0,0,4.39,1.6c2.214.687,5.535,1.336,5.535,1.336a13.53,13.53,0,0,0,2.329.917c.877.19,2.52.419,2.52.419s.534.344,1.145.649l1.221.611,3.55,4.237s1.108-.916,2.062-1.6a23.5,23.5,0,0,1,2.061-1.3,37.882,37.882,0,0,0,4.008,3.4,32.608,32.608,0,0,0,5.879,2.443c1.45.534,3.207,1.451,5.955,2.825a18.336,18.336,0,0,1,4.391,3.016,5.019,5.019,0,0,0-.993-.42,1.044,1.044,0,0,0-.878,0l-.534.344s-.382.076.229.611,2.176-.153,2.176-.153a5.77,5.77,0,0,1,.725.573,27.619,27.619,0,0,0,2.329,2.138,1.729,1.729,0,0,0,2.214-.343,4.945,4.945,0,0,0,1.031-1.986c.191-.687.458-2.176.458-2.176s1.337-1.6,2.176-2.71a4.777,4.777,0,0,0,1.108-2.52A1.83,1.83,0,0,0,115.232,231.329ZM38.425,216.46c-.038.172-.305.249-.21.019S38.463,216.288,38.425,216.46Zm3.168,5.23a1.887,1.887,0,0,0,.076.783,3.578,3.578,0,0,0,.459.973,1.05,1.05,0,0,1,.191.325l.019.343a2.929,2.929,0,0,1-.763.744c-.706.4-.9.038-.9.038l.687-3.188Zm-1.24,1.432s.134-1.756.191-1.928.267-.172.4-.076-.038.286-.038.286a2.551,2.551,0,0,0-.286.783A6.907,6.907,0,0,1,40.353,223.121Zm2.634,1.871c-.038.4-.248.5-.9.744a2.657,2.657,0,0,1-1.146.229c-.21,0-.286-.248-.286-.248a1.124,1.124,0,0,0,.821-.134,3.183,3.183,0,0,0,.916-.573l.4-.4S43.025,224.591,42.987,224.992ZM42.93,222.3c-.057.229-.057.4-.1.592a2.608,2.608,0,0,1-.134.42s-.191-.725-.248-1.012a1.527,1.527,0,0,1-.038-.439h.209S42.987,222.071,42.93,222.3Zm14.7.678.2.057.487.372a4.966,4.966,0,0,0,.172,1.46,4.242,4.242,0,0,0,.744,1.174,1.7,1.7,0,0,1-.459.83,2.551,2.551,0,0,1-1.087.6l-.086-.544a1.439,1.439,0,0,0,.229-.343,1.011,1.011,0,0,0,.143-.774,3.268,3.268,0,0,0-.2-.544l-.4-2.061Z" transform="translate(0 -69.41)"/><path class="b" d="M107.9,19.33l.43-.028L98,115.472l-.515-.859Z" transform="translate(-34.071 -0.127)"/><path class="b" d="M110.9,19.088l.515-.057L91.949,111.624l-.515-.4Z" transform="translate(-31.23)"/><path class="a" d="M85.492,219.81l.945-7.644,3.35-.172-2.92-3.693-2.233,5.669Z" transform="translate(-28.035 -88.918)"/><path class="b" d="M96.517,217.858a8.717,8.717,0,0,1-.859,2.319c-.6,1.031-.258,1.46-.258,1.46a8.263,8.263,0,0,0,1.031-1.546c.429-.859.773-1.8.773-1.8Z" transform="translate(-33.048 -93.408)"/><path class="b" d="M97.724,219.306l.5,7.368a5.636,5.636,0,0,1-.268,1.26c-.229.687-1.3,4.2-1.3,4.2h-.649l1.68-4.963-.382-7.978Z" transform="translate(-33.378 -94.035)"/><path class="b" d="M115.138,245.317c-.378-.261-1.3.115-1.3.115s-.763-.458-.8,0a1.457,1.457,0,0,0,.42,1.412,2.584,2.584,0,0,0,1.031.878,9.347,9.347,0,0,1,.458-1.222C115.138,246.157,115.634,245.661,115.138,245.317Z" transform="translate(-41.364 -106.265)"/><path class="b" d="M114.587,247.477s-.725-.407-.725-.916c0-.916.534-.229.534-.229Z" transform="translate(-41.767 -106.669)"/><path class="b" d="M98.148,233.516a2.365,2.365,0,0,1,1.3,0,2.4,2.4,0,0,1,1.336.611c.267.267,1.107,1.3,1.107,1.3l-.076.611,2.481,2.061a1.59,1.59,0,0,1,.84.115,12.359,12.359,0,0,1,1.832,1.145s.535.42.268.878a1.417,1.417,0,0,1-1.68.458c-.5-.305-2.176-1.756-2.176-1.756v-.649l-2.52-2.1a13.826,13.826,0,0,1-1.336-.993C98.377,234.241,98.033,234.05,98.148,233.516Z" transform="translate(-34.375 -100.725)"/><path class="a" d="M86.539,266.711l-2.558,6.337.344.763,2.787-6.948Z" transform="translate(-27.729 -116.359)"/><path class="b" d="M54.131,310.991,31.494,378.026h.725l22.256-66.653Z" transform="translate(-3.071 -137.162)"/></g></svg>