<svg xmlns="http://www.w3.org/2000/svg" width="87.972" height="135.601" viewBox="0 0 87.972 135.601"><defs><style>.a{fill:#e6d61a;}</style></defs><path class="a" d="M357.877,92.148a44.138,44.138,0,0,0-.863-6.479c-.757-3.672-3.241-8.424-3.889-10.044a17.055,17.055,0,0,1-1.3-5.508,25.756,25.756,0,0,0-.432-4.968,53.745,53.745,0,0,0-3.025-7.775,74.912,74.912,0,0,1-2.7-7.128c-.324-1.079.217-1.4.972-2.376s.648-2.484.756-3.455a13.845,13.845,0,0,1,.864-3.348c.54-1.512-.648-1.62-.648-1.62a2.573,2.573,0,0,0-.432-1.3c-.432-.648-1.512-.324-1.512-.324a4.386,4.386,0,0,1-.648-1.188.851.851,0,0,0-1.62.324,9.582,9.582,0,0,1-.864,2.592,8.069,8.069,0,0,1,.108-1.188,9.465,9.465,0,0,0-.108-2.376c-.107-1.08-1.512-1.188-1.512,0a13.7,13.7,0,0,1-.324,2.592l-.972,1.512-.864-.109a47.851,47.851,0,0,0-.216-4.859c-.216-1.3-1.944-.432-1.728,1.08a3.622,3.622,0,0,1-.647,2.592s-1.189-2.16-.756-3.24.54-1.512-.324-1.836-1.836,1.08-1.836,1.08-1.189-.108-1.4.648-1.079,4.32-1.079,4.32l1.079,6.695s-2.7,4.86-4.1,7.56a50.887,50.887,0,0,0-4.32,10.907c-1.08,4.32-1.4,10.476-1.512,15.444s0,9.287.216,12.1a10.382,10.382,0,0,1-.864,4.968s-1.727.756-3.887,1.728a16.307,16.307,0,0,0-3.349,1.944s-7.883-12.312-10.8-17.279-5.4-6.264-6.8-6.48-4.752,1.62-6.156,3.348-1.944,4.427-2.7,6.371a36.147,36.147,0,0,0-1.4,9.5,13.868,13.868,0,0,1-.864,4.968,29.116,29.116,0,0,0-5.076-1.188c-2.16-.216-5.183-.648-7.668,1.08s-.648,2.916.217,4,4.644,2.7,6.371,2.916a18.762,18.762,0,0,1,5.616,2.376,6.775,6.775,0,0,0,4,1.08c1.4-.108,2.808-.756,3.132-1.836a21.687,21.687,0,0,0,.54-2.592l1.08-1.727-1.512-.756a12.126,12.126,0,0,1,1.836-3.78c1.08-1.188,2.592-3.348,2.592-3.348s1.4,3.239,2.591,6.7,4.212,10.367,6.048,12.527,5.4,5.723,5.4,5.723-.972,2.593-2.052,5.185-.54,4.535-.756,6.371a30.77,30.77,0,0,1-1.079,4.752,37.509,37.509,0,0,0-1.621,7.128,80.565,80.565,0,0,1-2.16,10.367,5.782,5.782,0,0,1-1.836,2.916s-1.835-1.188-2.808-.648-.756,2.16,0,3.348a6.387,6.387,0,0,1,1.4,3.456c0,1.295.432,2.915,1.836,3.456a2.946,2.946,0,0,0,3.456-.865c.864-.971.108-2.375.756-3.348s1.512-2.052,1.512-2.052l-.648-1.835s3.564-5.616,6.48-10.8,3.779-7.775,4.428-10.691,1.4-8.424,1.4-8.424,1.187-.755,2.483-1.511,3.024-1.945,3.024-1.945a54.391,54.391,0,0,0,6.048-2.051,22.483,22.483,0,0,0,4.86-2.809,8.609,8.609,0,0,0,3.239-3.455s.108-.432,3.456-2.052,8.64-5.723,12.852-10.152,4.536-6.587,4.536-9.611A10.454,10.454,0,0,0,357.877,92.148Zm-16.2-16.955a9.293,9.293,0,0,0-4.32,6.695,18.752,18.752,0,0,0,.432,7.884,9.076,9.076,0,0,0,1.4,3.24s-2.915-2.592-4.1-4c0,0-.863-1.08-1.836-2.16a13.628,13.628,0,0,1-1.727-2.591,41.12,41.12,0,0,0-.109-7.344c-.431-3.564-1.3-5.616-1.511-7.668s1.511-5.723,2.376-8.855,1.836-5.4,2.591-8.316a34.752,34.752,0,0,1,1.836-6.047c.756-1.62,1.512-2.916,1.512-2.916s.216,3.347,1.08,4.86,1.4,4.535,2.268,7.883,1.728,9.72,2.16,11.987a32.711,32.711,0,0,0,2.484,6.264A8.3,8.3,0,0,0,341.678,75.193Z" transform="translate(-271.418 -33.674)"/></svg>