<svg xmlns="http://www.w3.org/2000/svg" width="19.55" height="15.857" viewBox="0 0 19.55 15.857"><defs><style>.a{fill:#fff;fill-rule:evenodd;}</style></defs><path class="a" d="M44.191,17.857a11.3,11.3,0,0,0,11.4-11.4V5.91A8.828,8.828,0,0,0,57.55,3.846a9.016,9.016,0,0,1-2.281.652,4.226,4.226,0,0,0,1.738-2.172,9.962,9.962,0,0,1-2.5.977A3.879,3.879,0,0,0,51.576,2a4.081,4.081,0,0,0-4.019,4.019,2.117,2.117,0,0,0,.109.869,11.229,11.229,0,0,1-8.254-4.236,4.16,4.16,0,0,0-.543,2.064,4.315,4.315,0,0,0,1.738,3.367,3.661,3.661,0,0,1-1.846-.543h0a3.969,3.969,0,0,0,3.258,3.91,3.348,3.348,0,0,1-1.086.109,1.848,1.848,0,0,1-.76-.109,4.115,4.115,0,0,0,3.8,2.824,8.2,8.2,0,0,1-5,1.738A3.007,3.007,0,0,1,38,15.9a10.252,10.252,0,0,0,6.191,1.955" transform="translate(-38 -2)"/></svg>