<svg xmlns="http://www.w3.org/2000/svg" width="682.143" height="682.143" viewBox="0 0 682.143 682.143"><defs><style>.a{opacity:0.4;}.b{fill:#e6d61a;}</style></defs><g class="a" transform="translate(160.757 -325.958) rotate(-45)"><path class="b" d="M-620.715,464.7c.216-3.758,1.561-4.9,5-5.6,50.687-10.286,100.278-24.156,147.386-45.923,23.661-10.934,46.243-23.681,66.518-40.473,55.784,43.045,120.441,64.125,187.124,80.454,9.192,2.25,18.49,4.088,27.756,6.033,2.6.547,4.307,1.225,4.426,4.581,2.4,67.911-6.035,134.07-32.37,197.2-26.767,64.176-69.258,114.759-131.2,147.528-16.659,8.814-34.673,15.086-52.185,22.235-2.125.867-5.178.5-7.484-.264-88.642-29.144-150.309-87.2-185.4-173.548-15.05-37.035-23.617-75.654-27.609-115.364a486.926,486.926,0,0,1-1.962-76.864M-609.333,649.5c35.866,98.562,102.929,165.032,203.465,196.771a13.42,13.42,0,0,0,7.484.381c34.289-10.558,66.352-25.727,95.39-46.96,56.181-41.08,91.912-96.529,113.332-161.927,11.338-34.618,17.864-70.191,20.867-106.477a532.264,532.264,0,0,0,.646-77.9c-.259-4.027-1.37-6.091-6.048-6.981-44.014-8.369-87.3-19.489-129.034-36.041-30.331-12.027-59.554-26.175-85.149-46.8-4.462-3.595-8.148-8.155-12.192-12.269h-.984c-2.644,2.659-5.135,5.494-7.954,7.955-22.547,19.687-48.7,33.377-75.937,45.165-45.489,19.687-93.115,32.2-141.6,41.771-7.525,1.488-7.477,1.543-7.952,9.322a529.255,529.255,0,0,0,.749,75.451c3.315,40.579,10.983,80.246,24.917,118.534" transform="translate(57.353)"/><path class="b" d="M-589.279,569.817c26.587,71.622,73.847,123.525,145.586,151.985a13.438,13.438,0,0,0,10.747-.15c62.093-24.568,106.992-67.394,135.28-127.666,22.737-48.442,31.915-99.91,33.257-153.06.1-4.047-2.349-4.284-5.021-5.051-21.8-6.262-43.645-12.373-65.348-18.952-9.907-3-19.527-6.95-30.095-10.766,1.22,2.181,1.962,3.585,2.776,4.947,12.322,20.623,24.423,41.385,37.068,61.807,8.343,13.479,10.766,28.074,8.992,43.307-4,34.3-18.818,63.958-40.674,90.285a51,51,0,0,1-20.749,15.226c-13.649,5.341-26.732,1.144-34.419-11.28-8.328-13.459-11.32-28.5-11.552-44.032-.463-31.109,10.431-58.179,30.462-81.7,2.082-2.445,2.549-4.113.915-7.184-14.824-27.825-29.411-55.774-44.083-83.68-.628-1.193-1.411-2.3-2.267-3.686-.653.93-.984,1.3-1.21,1.731-15.215,28.908-30.466,57.8-45.5,86.8-.679,1.307-.079,4.116.964,5.351,18.258,21.672,29.332,46.335,30.706,74.808.9,18.744-1.988,36.865-12.373,53.064-6.366,9.925-15.769,13.234-27.105,11.565-9.3-1.371-16.913-6.3-23.158-12.91-23.536-24.909-37.95-54.584-43.944-88.18-3.45-19.326.051-37.363,11.063-54.287,12.907-19.839,24.492-40.538,36.8-61.1-.7-.29-.875-.437-.979-.4A808.543,808.543,0,0,1-609.363,436.7c-1.22.3-2.773,2.606-2.758,3.958.1,8,.474,16.011,1.006,24,2.4,36.059,9.244,71.239,21.835,105.157" transform="translate(94.174 59.934)"/></g></svg>